<?xml version="1.0" encoding="iso-8859-1"?>
<svg height="800px" width="800px" version="1.1" id="Layer_1" xmlns="http://www.w3.org/2000/svg"
	 viewBox="0 0 511.999 511.999" xml:space="preserve">
<path style="fill:#AF9CE6;" d="M435.426,53.106c0-24.887-20.175-45.062-45.062-45.062H262.908h-108.27h-18.209v379.195h126.479
	v-19.582l172.518-23.743L435.426,53.106L435.426,53.106z"/>
<path style="fill:#9B8ACC;" d="M121.636,8.043c-24.887,0-45.062,20.175-45.062,45.062v348.252l78.065-14.119V8.043H121.636z"/>
<polygon style="fill:#DDE1ED;" points="106.478,451.937 435.426,438.178 435.426,364.535 106.478,350.776 "/>
<path style="fill:#8779B3;" d="M435.426,323.292H154.638c-43.045,0-78.065,35.02-78.065,78.065s35.019,78.064,78.065,78.064h280.788
	v-41.243H154.638c-20.304,0-36.822-16.519-36.822-36.822c0-20.304,16.519-36.823,36.822-36.823h280.788V323.292z"/>
<polygon style="fill:#FFD77A;" points="342.577,127.774 300.735,127.774 300.735,88.502 270.294,88.502 270.294,127.774 
	228.452,127.774 228.452,158.214 270.294,158.214 270.294,255.225 300.735,255.225 300.735,158.214 342.577,158.214 "/>
<polygon style="fill:#FF7B78;" points="239.518,473.556 270.952,503.957 270.952,401.357 208.085,401.357 208.085,503.957 "/>
<path d="M342.578,119.73h-33.801V88.502c0-4.442-3.601-8.043-8.043-8.043h-30.44c-4.442,0-8.043,3.601-8.043,8.043v31.229h-33.801
	c-4.442,0-8.043,3.601-8.043,8.043v30.44c0,4.442,3.601,8.043,8.043,8.043h33.801v88.969c0,4.442,3.601,8.043,8.043,8.043h30.44
	c4.442,0,8.043-3.601,8.043-8.043v-88.969h33.801c4.442,0,8.043-3.601,8.043-8.043v-30.44
	C350.621,123.331,347.02,119.73,342.578,119.73z M334.535,150.172h-33.801c-4.442,0-8.043,3.601-8.043,8.043v88.969h-14.355v-88.969
	c0-4.442-3.601-8.043-8.043-8.043h-33.801v-14.355h33.801c4.442,0,8.043-3.601,8.043-8.043V96.545h14.355v31.229
	c0,4.442,3.601,8.043,8.043,8.043h33.801V150.172z"/>
<path d="M443.468,479.421v-41.242v-73.643v-41.242V53.105C443.468,23.823,419.646,0,390.364,0H154.638h-33.003
	C92.353,0,68.53,23.823,68.53,53.105v24.957c0,4.442,3.601,8.043,8.043,8.043c4.442,0,8.043-3.601,8.043-8.043V53.105
	c0-20.412,16.607-37.019,37.019-37.019h24.96v299.537c-0.171,0.016-0.34,0.038-0.51,0.055c-0.201,0.02-0.4,0.043-0.601,0.064
	c-17.857,1.893-35.044,9.665-48.405,21.631c-4.168,3.732-7.951,7.897-11.316,12.365c-0.097,0.129-0.19,0.259-0.286,0.388
	c-0.288,0.388-0.579,0.775-0.861,1.169V110.234c0-4.442-3.601-8.043-8.043-8.043c-4.442,0-8.043,3.601-8.043,8.043v291.123
	c0,47.479,38.628,86.107,86.108,86.107h45.403v16.493c0,3.229,1.93,6.144,4.903,7.404c2.97,1.261,6.41,0.622,8.731-1.624
	l25.843-24.994l25.843,24.994c1.53,1.48,3.545,2.262,5.592,2.262c1.058,0,2.125-0.209,3.138-0.639
	c2.973-1.26,4.903-4.176,4.903-7.404v-16.493h73.988c4.442,0,8.043-3.601,8.043-8.043c0-4.442-3.601-8.043-8.043-8.043h-73.988
	v-25.155h148.388v25.157H385.04c-4.442,0-8.043,3.601-8.043,8.043c0,4.442,3.601,8.043,8.043,8.043h50.385
	C439.867,487.463,443.468,483.862,443.468,479.421z M262.91,438.178v41.242v5.569l-17.8-17.216
	c-1.559-1.508-3.574-2.262-5.591-2.262c-2.017,0-4.032,0.754-5.591,2.262l-17.8,17.216v-5.569v-41.242v-28.779h46.783V438.178z
	 M427.383,430.136H278.996v-28.779c0-4.443-3.601-8.043-8.043-8.043h-62.868c-4.442,0-8.043,3.6-8.043,8.043v28.779h-45.403
	c-15.869,0-28.779-12.91-28.779-28.779s12.91-28.779,28.779-28.779h272.745v57.558H427.383z M427.383,315.249H225.67
	c-4.442,0-8.043,3.601-8.043,8.043c0,4.442,3.601,8.043,8.043,8.043h201.714v25.157H154.639c-24.738,0-44.864,20.126-44.864,44.864
	c0,24.738,20.126,44.864,44.864,44.864h45.403v25.157h-45.403c-38.61,0-70.022-31.412-70.022-70.021s31.412-70.022,70.022-70.022
	h38.86c4.442,0,8.043-3.601,8.043-8.043c0-4.442-3.601-8.043-8.043-8.043h-30.818V16.085h227.683
	c20.412,0,37.019,16.607,37.019,37.019v262.145H427.383z"/>
</svg>